<?xml version="1.0" encoding="UTF-8"?>
<svg width="87px" height="58px" viewBox="0 0 87 58" version="1.1" xmlns="http://www.w3.org/2000/svg" xmlns:xlink="http://www.w3.org/1999/xlink">
    <!-- Generator: Sketch 41.2 (35397) - http://www.bohemiancoding.com/sketch -->
    <title>android</title>
    <desc>Created with Sketch.</desc>
    <defs>
        <polygon id="path-1" points="39.6441458 0.535392857 9.08847917 0.535392857 9.08847917 18.5783357 39.6441458 18.5783357"></polygon>
    </defs>
    <g id="Welcome" stroke="none" stroke-width="1" fill="none" fill-rule="evenodd" opacity="0.524116848">
        <g id="Desktop-HD" transform="translate(-1177.000000, -1135.000000)">
            <g id="apps" transform="translate(135.000000, 1023.000000)">
                <g id="clients" transform="translate(600.000000, 0.000000)">
                    <g id="circles" transform="translate(0.000000, 84.000000)">
                        <g id="android" transform="translate(400.000000, 0.000000)">
                            <g transform="translate(42.000000, 28.000000)">
                                <g id="iphone" fill="#000000">
                                    <path d="M29.0543478,0 L3.94565217,0 C1.77147826,0 0,1.69580723 0,3.77710843 L0,53.2228916 C0,55.3041928 1.77147826,57 3.94565217,57 L29.0543478,57 C31.2285217,57 33,55.3041928 33,53.2228916 L33,3.77710843 C33,1.69580723 31.2285217,0 29.0543478,0 Z M3.94565217,2.06024096 L29.0543478,2.06024096 C30.0443478,2.06024096 30.8478261,2.82939759 30.8478261,3.77710843 L30.8478261,6.86746988 L2.15217391,6.86746988 L2.15217391,3.77710843 C2.15217391,2.82939759 2.95565217,2.06024096 3.94565217,2.06024096 Z M30.8478261,8.92771084 L30.8478261,44.6385542 L2.15217391,44.6385542 L2.15217391,8.92771084 L30.8478261,8.92771084 Z M29.0543478,54.939759 L3.94565217,54.939759 C2.95565217,54.939759 2.15217391,54.1706024 2.15217391,53.2228916 L2.15217391,46.6987952 L30.8478261,46.6987952 L30.8478261,53.2228916 C30.8478261,54.1706024 30.0443478,54.939759 29.0543478,54.939759 Z" id="Fill-1"></path>
                                    <path d="M16.9995789,48 C15.3456842,48 14,49.3456842 14,51.0004211 C14,52.6543158 15.3456842,54 16.9995789,54 C18.6543158,54 20,52.6543158 20,51.0004211 C20,49.3456842 18.6543158,48 16.9995789,48 Z M16.999619,52 C16.4495238,52 16,51.5504762 16,51.000381 C16,50.4495238 16.4495238,50 16.999619,50 C17.5504762,50 18,50.4495238 18,51.000381 C18,51.5504762 17.5504762,52 16.999619,52 Z" id="Fill-2"></path>
                                    <path d="M13,6 L21,6 C21.552,6 22,5.552 22,5 C22,4.448 21.552,4 21,4 L13,4 C12.448,4 12,4.448 12,5 C12,5.552 12.448,6 13,6 Z" id="Fill-3"></path>
                                    <path d="M11,5.00033591 C11,6.33322136 9,6.33322136 9,5.00033591 C9,3.6665547 11,3.6665547 11,5.00033591" id="Fill-4"></path>
                                </g>
                                <g transform="translate(38.000000, 0.000000)">
                                    <g id="Group-3" transform="translate(9.000000, 0.000000)"></g>
                                    <path d="M48.7371818,38.2429495 L48.7371818,41.9518667 L48.7371818,41.9518667 L42.2483727,41.9518667 L42.2483727,20.2545333 L48.7371818,20.2545333 L48.7371818,23.9634374 C48.737309,23.9771187 48.7373727,23.9908174 48.7373727,24.0045333 L48.7373727,38.2018667 C48.7373727,38.2155782 48.737309,38.2292726 48.7371818,38.2429495 Z M0,23.957083 L0,20.2545333 L0,20.2545333 L6.48874545,20.2545333 L6.48874545,41.9518667 L0,41.9518667 L0,38.2493019 C-0.000169530802,38.2335134 -0.000254545454,38.2177014 -0.000254545454,38.2018667 L-0.000254545454,24.0045333 C-0.000254545454,23.9886935 -0.000169530802,23.9728765 -5.62981736e-14,23.957083 Z M9,20 L9,43.5701522 C9,44.7396962 10.3989264,46.2704132 11.5566809,46.2704132 L15.2165115,46.2704132 L15.2165115,54.3061849 C15.2165115,56.3517376 16.6914947,58 18.5279106,58 C20.3636764,58 21.8393097,56.3517376 21.8393097,54.3061849 L21.8393097,46.2704132 L27.1613404,46.2704132 L27.1613404,54.3061849 C27.1613404,56.3517376 28.6369737,58 30.4727395,58 C32.3085053,58 33.8042904,56.3517376 33.8042904,54.3061849 L33.8042904,46.2704132 L37.442669,46.2704132 C38.6010736,46.2704132 40,44.7396962 40,43.5701522 L40,20 L9,20 Z" id="Combined-Shape" fill="#000000"></path>
                                    <mask id="mask-2" fill="white">
                                        <use xlink:href="#path-1"></use>
                                    </mask>
                                    <g id="Clip-2"></g>
                                    <path d="M31.6319375,10.2610857 C32.4327708,10.2610857 33.0850625,10.9464429 33.0850625,11.7878714 C33.0850625,12.6286214 32.4327708,13.2936214 31.6319375,13.2936214 C30.83175,13.2936214 30.1788125,12.6286214 30.1788125,11.7878714 C30.1788125,10.9464429 30.83175,10.2610857 31.6319375,10.2610857 L31.6319375,10.2610857 Z M17.1006875,10.2610857 C17.9015208,10.2610857 18.5538125,10.9464429 18.5538125,11.7878714 C18.5538125,12.6286214 17.9015208,13.2936214 17.1006875,13.2936214 C16.3005,13.2936214 15.6475625,12.6286214 15.6475625,11.7878714 C15.6475625,10.9464429 16.3005,10.2610857 17.1006875,10.2610857 L17.1006875,10.2610857 Z M14.4773125,0.978228571 L17.1006875,5.7703 C12.3253958,8.23147857 9.08847917,13.0506929 9.08847917,18.5783357 L24.3663125,18.5783357 L39.6441458,18.5783357 C39.6441458,13.0506929 36.407875,8.23215714 31.6319375,5.7703 L34.2553125,0.978228571 C34.2553125,0.978228571 34.3806042,0.723764286 34.144875,0.580585714 C33.9085,0.438085714 33.7509167,0.681692857 33.7509167,0.681692857 L31.0868542,5.51651429 C29.0582917,4.56787143 26.7778542,4.0318 24.3663125,4.0318 C21.9547708,4.0318 19.6736875,4.56787143 17.6457708,5.51651429 L14.9817083,0.681692857 C14.9817083,0.681692857 14.8331667,0.437407143 14.5961458,0.579907143 C14.3578333,0.722407143 14.4773125,0.978228571 14.4773125,0.978228571 Z" id="Fill-1" fill="#000000" mask="url(#mask-2)"></path>
                                </g>
                            </g>
                        </g>
                    </g>
                </g>
            </g>
        </g>
    </g>
</svg>