<?xml version="1.0" encoding="UTF-8"?>
<svg width="80px" height="58px" viewBox="0 0 80 58" version="1.1" xmlns="http://www.w3.org/2000/svg" xmlns:xlink="http://www.w3.org/1999/xlink">
    <!-- Generator: Sketch 41.2 (35397) - http://www.bohemiancoding.com/sketch -->
    <title>ios</title>
    <desc>Created with Sketch.</desc>
    <defs></defs>
    <g id="Welcome" stroke="none" stroke-width="1" fill="none" fill-rule="evenodd">
        <g id="Desktop-HD" transform="translate(-981.000000, -1135.000000)">
            <g id="apps" transform="translate(135.000000, 1023.000000)">
                <g id="clients" transform="translate(600.000000, 0.000000)">
                    <g id="circles" transform="translate(0.000000, 84.000000)">
                        <g id="ios-App" transform="translate(200.000000, 0.000000)">
                            <g id="ios" transform="translate(46.000000, 28.000000)">
                                <g id="iphone" fill="#041524">
                                    <path d="M29.0543478,0 L3.94565217,0 C1.77147826,0 0,1.69580723 0,3.77710843 L0,53.2228916 C0,55.3041928 1.77147826,57 3.94565217,57 L29.0543478,57 C31.2285217,57 33,55.3041928 33,53.2228916 L33,3.77710843 C33,1.69580723 31.2285217,0 29.0543478,0 Z M3.94565217,2.06024096 L29.0543478,2.06024096 C30.0443478,2.06024096 30.8478261,2.82939759 30.8478261,3.77710843 L30.8478261,6.86746988 L2.15217391,6.86746988 L2.15217391,3.77710843 C2.15217391,2.82939759 2.95565217,2.06024096 3.94565217,2.06024096 Z M30.8478261,8.92771084 L30.8478261,44.6385542 L2.15217391,44.6385542 L2.15217391,8.92771084 L30.8478261,8.92771084 Z M29.0543478,54.939759 L3.94565217,54.939759 C2.95565217,54.939759 2.15217391,54.1706024 2.15217391,53.2228916 L2.15217391,46.6987952 L30.8478261,46.6987952 L30.8478261,53.2228916 C30.8478261,54.1706024 30.0443478,54.939759 29.0543478,54.939759 Z" id="Fill-1"></path>
                                    <path d="M16.9995789,48 C15.3456842,48 14,49.3456842 14,51.0004211 C14,52.6543158 15.3456842,54 16.9995789,54 C18.6543158,54 20,52.6543158 20,51.0004211 C20,49.3456842 18.6543158,48 16.9995789,48 Z M16.999619,52 C16.4495238,52 16,51.5504762 16,51.000381 C16,50.4495238 16.4495238,50 16.999619,50 C17.5504762,50 18,50.4495238 18,51.000381 C18,51.5504762 17.5504762,52 16.999619,52 Z" id="Fill-2"></path>
                                    <path d="M13,6 L21,6 C21.552,6 22,5.552 22,5 C22,4.448 21.552,4 21,4 L13,4 C12.448,4 12,4.448 12,5 C12,5.552 12.448,6 13,6 Z" id="Fill-3"></path>
                                    <path d="M11,5.00033591 C11,6.33322136 9,6.33322136 9,5.00033591 C9,3.6665547 11,3.6665547 11,5.00033591" id="Fill-4"></path>
                                </g>
                                <g id="appletv" transform="translate(38.000000, 16.000000)">
                                    <path d="M5.55386425,40.18 L34.6181358,40.18 C37.5786663,40.18 40,37.7577477 40,34.7972172 L40,5.73386425 C40,2.7733337 37.5786663,0.351081436 34.6181358,0.351081436 L5.55386425,0.351081436 C2.59425227,0.351081436 0.172,2.7733337 0.172,5.73386425 L0.172,34.7972172 C0.172,37.7577477 2.59425227,40.18 5.55386425,40.18 Z" id="Stroke-1" stroke="#041524" stroke-width="2.34375"></path>
                                    <path d="M24.0154644,12.3528029 C24.7723036,11.4650246 25.2819339,10.2295241 25.1428451,9 C24.0518666,9.04237865 22.732152,9.70413751 21.9492337,10.5913725 C21.2478128,11.3770074 20.6333224,12.6347839 20.7990338,13.8398588 C22.0155183,13.9311359 23.2580819,13.2411246 24.0154644,12.3528029 M26.7434539,20.1564504 C26.7738796,23.3348489 29.621942,24.3921418 29.6534543,24.4057247 C29.6290051,24.480159 29.1981555,25.9128832 28.1528156,27.3923326 C27.2492811,28.6718418 26.3115177,29.9464611 24.8342416,29.9725402 C23.3825013,29.9986194 22.9157928,29.1385502 21.2559625,29.1385502 C19.5966755,29.1385502 19.0783521,29.9464611 17.7037626,29.9986194 C16.2781015,30.0507777 15.1920128,28.6153369 14.2808719,27.3407176 C12.4189281,24.7333442 10.9959835,19.9733529 12.9068258,16.7601822 C13.8559988,15.1644631 15.551688,14.1538954 17.3929859,14.1278162 C18.7931112,14.1022804 20.114999,15.0405871 20.9707216,15.0405871 C21.8264443,15.0405871 23.4324863,13.9121198 25.1211124,14.0778312 C25.8279665,14.1060836 27.8121565,14.354379 29.0867758,16.1609046 C28.984089,16.2222994 26.7190047,17.4996352 26.7434539,20.1564504" id="Fill-17" fill="#041524"></path>
                                </g>
                            </g>
                        </g>
                    </g>
                </g>
            </g>
        </g>
    </g>
</svg>