<?xml version="1.0" encoding="UTF-8"?>
<svg width="33px" height="33px" viewBox="0 0 33 33" version="1.1" xmlns="http://www.w3.org/2000/svg" xmlns:xlink="http://www.w3.org/1999/xlink">
    <!-- Generator: Sketch 41.2 (35397) - http://www.bohemiancoding.com/sketch -->
    <title>link</title>
    <desc>Created with Sketch.</desc>
    <defs>
        <linearGradient x1="50%" y1="0%" x2="50%" y2="100%" id="linearGradient-1">
            <stop stop-color="#FFFFFF" stop-opacity="0.5" offset="0%"></stop>
            <stop stop-color="#000000" stop-opacity="0.5" offset="100%"></stop>
        </linearGradient>
    </defs>
    <g id="Welcome" stroke="none" stroke-width="1" fill="none" fill-rule="evenodd">
        <g id="Desktop-HD" transform="translate(-1112.000000, -1619.000000)" fill="#1FCDCA">
            <g id="api-links" transform="translate(0.000000, 1366.000000)">
                <g id="source" transform="translate(871.000000, 191.000000)">
                    <g id="link" transform="translate(241.000000, 62.000000)">
                        <path d="M29.2682927,19.6703635 C28.902439,19.6703635 28.5365854,20.0311848 28.5365854,20.3908533 L28.5365854,31.5590205 L1.46341463,31.5590205 L1.46341463,5.44097947 L12.9880976,5.44097947 C13.3533659,5.44097947 13.7198049,5.0807346 13.7198049,4.72048973 C13.7198049,4.36024487 13.3533659,4 12.9880976,4 L0.731707317,4 C0.365853659,4 0,4.36024487 0,4.72048973 L0,32.2795103 C0,32.6391787 0.365853659,33 0.731707317,33 L29.2682927,33 C29.6341463,33 30,32.6391787 30,32.2795103 L30,20.3908533 C30,20.0311848 29.8173659,19.6703635 29.2682927,19.6703635 Z" id="Fill-1"></path>
                        <path d="M32.2643723,0 L19.9423145,0 C19.5750892,0 19.2066869,0.369230769 19.2066869,0.738461538 C19.2066869,1.10769231 19.5750892,1.47692308 19.9423145,1.47692308 L30.4253031,1.47692308 L9.27630175,22.7079877 C8.90789942,23.0766277 8.90789942,23.4464492 9.27630175,23.8150892 C9.45991442,24 9.64352709,24 9.82772826,24 C10.0119294,24 10.1955421,24 10.3791548,23.8150892 L31.5287447,2.76952615 L31.5287447,13.2923077 C31.5287447,13.6615385 31.8965585,14.0307692 32.2643723,14.0307692 C32.6321862,14.0307692 33,13.6615385 33,13.2923077 L33,0.922781538 C33,0.369230769 32.6321862,0 32.2643723,0 Z" id="Fill-2"></path>
                    </g>
                </g>
            </g>
        </g>
    </g>
</svg>