<?xml version="1.0" encoding="UTF-8"?>
<svg width="63px" height="59px" viewBox="0 0 63 59" version="1.1" xmlns="http://www.w3.org/2000/svg" xmlns:xlink="http://www.w3.org/1999/xlink">
    <!-- Generator: Sketch 41.2 (35397) - http://www.bohemiancoding.com/sketch -->
    <title>messages</title>
    <desc>Created with Sketch.</desc>
    <defs></defs>
    <g id="Welcome" stroke="none" stroke-width="1" fill="none" fill-rule="evenodd">
        <g id="Desktop-HD" transform="translate(-589.000000, -1135.000000)" fill="#1FCDCA">
            <g id="apps" transform="translate(135.000000, 1023.000000)">
                <g id="services">
                    <g id="nachricht" transform="translate(400.000000, 85.000000)">
                        <path d="M96.2386364,27 L74.7613636,27 C63.3144545,27 54,36.4034686 54,47.9657101 L54,53.6938726 C54,62.7054497 59.6785909,70.6867472 68.1320455,73.5532357 L68.9634545,73.8315075 L68.5272273,74.5989214 C67.3970455,76.5622301 65.865,79.646329 63.8432727,84.0245362 C63.6017727,84.5512306 63.7096364,85.1790272 64.1162727,85.5930648 C64.5190909,85.9993994 65.1529091,86.1120561 65.6635909,85.8828911 L89.9892273,74.6518797 L96.2386364,74.6518797 C107.685545,74.6518797 117,65.2484111 117,53.6938726 L117,47.9657101 C117,36.4034686 107.685545,27 96.2386364,27 Z M69,55 C66.7920937,55 65,53.2046591 65,50.9975607 C65,48.791438 66.795998,47 69,47 C71.2079063,47 73,48.7953409 73,50.9975607 C73,53.2046591 71.204002,55 69,55 Z M86,55 C83.7920937,55 82,53.2046591 82,50.9975607 C82,48.791438 83.795998,47 86,47 C88.2079063,47 90,48.7953409 90,50.9975607 C90,53.2046591 88.2079063,55 86,55 Z M101.999997,55 C99.7920923,55 98,53.2046591 98,50.9975607 C98,48.791438 99.7959966,47 101.999997,47 C104.207901,47 105.999994,48.7953409 105.999994,50.9975607 C106.003898,53.2046591 104.207901,55 101.999997,55 Z" id="messages"></path>
                    </g>
                </g>
            </g>
        </g>
    </g>
</svg>