<?xml version="1.0" encoding="UTF-8"?>
<svg width="29px" height="19px" viewBox="0 0 29 19" version="1.1" xmlns="http://www.w3.org/2000/svg" xmlns:xlink="http://www.w3.org/1999/xlink">
    <!-- Generator: Sketch 41.2 (35397) - http://www.bohemiancoding.com/sketch -->
    <title>message</title>
    <desc>Created with Sketch.</desc>
    <defs></defs>
    <g id="Welcome" stroke="none" stroke-width="1" fill="none" fill-rule="evenodd">
        <g id="Desktop-HD" transform="translate(-647.000000, -2123.000000)" fill="#1FCDCA">
            <g id="contact" transform="translate(-10.000000, 1748.000000)">
                <g id="form" transform="translate(656.000000, 222.000000)">
                    <g id="message" transform="translate(1.000000, 140.000000)">
                        <path d="M24.3387018,32 C26.9172632,32 29,30.0056562 29,27.5365311 L29,24.0151996 C29,21.5460745 26.9172632,19.5517308 24.3387018,19.5517308 L21.538,19.5517308 C21.8604912,17.4311572 22.1916491,15.5608593 22.831614,13.419757 C22.8918246,13.2236422 22.7121053,12.998263 22.5,13.0000101 C21.7054035,13.0000101 20.9568772,13.5254581 20.2334386,14.2797795 C19.51,15.0336642 18.8043509,16.0557326 18.180807,17.1765136 C16.9337193,19.4185124 16,22.0374536 16,23.8103492 L16,27.5365311 C16,30.0056562 18.0827368,32 20.6612982,32 L24.3387018,32 Z M8.33870175,32 C10.9172632,32 13,30.0056562 13,27.5365311 L13,24.0151996 C13,21.5460745 10.9172632,19.5517308 8.33870175,19.5517308 L5.538,19.5517308 C5.86049123,17.4311572 6.19164912,15.5608593 6.83161404,13.419757 C6.89182456,13.2236422 6.71210526,12.998263 6.5,13.0000101 C5.70540351,13.0000101 4.95687719,13.5254581 4.2334386,14.2797795 C3.51,15.0336642 2.80435088,16.0557326 2.18080702,17.1765136 C0.933719298,19.4185124 0,22.0374536 0,23.8103492 L0,27.5365311 C0,30.0056562 2.08273684,32 4.66129825,32 L8.33870175,32 Z M24.2388627,31 L20.7611373,31 C18.6698431,31 17,29.3599502 17,27.3059688 L17,23.6915888 C17,22.1972835 17.8493725,19.6615826 18.9916471,17.5550654 C19.5627843,16.5022305 20.2033725,15.5557383 20.8318824,14.8837882 C21.274902,14.4088474 21.6877255,14.1474393 22.0552549,14 C21.5091373,16.0027165 21.1791373,17.8033396 20.8823529,19.8386791 C20.8586275,20.0174704 21.0221176,20.1979564 21.2058824,20.1962617 L24.2388627,20.1962617 C26.3301569,20.1962617 28,21.8363115 28,23.8902928 L28,27.3059688 C28,29.3599502 26.3301569,31 24.2388627,31 Z M8.23886275,31 L4.76113725,31 C2.66984314,31 1,29.3599502 1,27.3059688 L1,23.6915888 C1,22.1972835 1.84937255,19.6615826 2.99164706,17.5550654 C3.56278431,16.5022305 4.20337255,15.5557383 4.83188235,14.8837882 C5.27490196,14.4088474 5.68772549,14.1474393 6.0552549,14 C5.50913725,16.0027165 5.17913725,17.8033396 4.88235294,19.8386791 C4.85862745,20.0174704 5.02211765,20.1979564 5.20588235,20.1962617 L8.23886275,20.1962617 C10.3301569,20.1962617 12,21.8363115 12,23.8902928 L12,27.3059688 C12,29.3599502 10.3301569,31 8.23886275,31 Z"></path>
                    </g>
                </g>
            </g>
        </g>
    </g>
</svg>