<?xml version="1.0" encoding="UTF-8"?>
<svg width="26px" height="25px" viewBox="0 0 26 25" version="1.1" xmlns="http://www.w3.org/2000/svg" xmlns:xlink="http://www.w3.org/1999/xlink">
    <!-- Generator: Sketch 41.2 (35397) - http://www.bohemiancoding.com/sketch -->
    <title>name</title>
    <desc>Created with Sketch.</desc>
    <defs></defs>
    <g id="Welcome" stroke="none" stroke-width="1" fill="none" fill-rule="evenodd">
        <g id="Desktop-HD" transform="translate(-647.000000, -1977.000000)" fill="#1FCDCA">
            <g id="contact" transform="translate(-10.000000, 1748.000000)">
                <g id="form" transform="translate(656.000000, 222.000000)">
                    <g id="name" transform="translate(1.000000, 0.000000)">
                        <path d="M23.989636,32 L2.22795325,32 C0.434303316,32 0.312322152,30.4285323 0.252344703,29.4902463 C0.252344703,29.3991584 0.252344703,29.2794544 0.222355978,29.1879635 C0.100374815,27.9191817 3.10978385,26.2864513 3.68767468,26.0438189 C3.93123176,25.9229058 4.32554296,25.7415361 4.84305109,25.4993068 C6.21078008,24.8346876 8.76427945,23.6255562 9.09820795,23.3232734 C9.12819668,23.2934481 9.15859066,23.2636229 9.15859066,23.2023602 C9.15859066,22.9299026 8.76265844,22.3865996 8.24677133,21.9331753 C7.63889177,21.3286097 6.54470858,19.4850874 6.02720045,16.1301509 C5.4193209,12.1706487 7.03101222,9.87329916 8.48870739,8.63273038 C10.4643159,7 13.0178153,7 13.1098077,7 C13.2313837,7 15.784883,7.03022828 17.850863,8.66255562 C19.9484527,10.2654608 20.7982683,12.9247437 20.3123699,16.1599761 C19.7964828,19.5149126 18.7006786,21.3902754 18.1248141,21.9630006 C17.4865405,22.5977945 17.1826008,23.1124815 17.2129947,23.3232734 C17.2129947,23.3535016 17.2129947,23.3535016 17.2429835,23.3535016 C17.6385104,23.6255562 20.3423587,24.9560037 21.8020801,25.6504482 C22.1976071,25.8314148 22.5015468,25.9825563 22.7138994,26.1038724 C22.7438882,26.1336977 26.1172144,27.857516 25.9968543,29.248017 C25.9968543,29.3391049 25.9968543,29.4289837 25.9668655,29.5502999 C25.9052671,30.4587606 25.7832859,32 23.989636,32 Z M13.0955046,7.78125 C13.0654963,7.78125 10.6948405,7.8110293 8.95355882,9.27021498 C7.06223562,10.8786942 6.2824199,13.231656 6.73254442,16.1194539 C7.21227713,19.2760597 8.23295948,21.0036561 8.74270049,21.4797278 C8.92235019,21.6286243 9.82259922,22.4322684 9.82259922,23.1473686 C9.82259922,23.3860001 9.7317741,23.5642788 9.5521244,23.7131753 C9.16161637,24.0109683 7.27189362,24.9341266 5.20092072,25.9466228 C4.72118801,26.1856513 4.30067169,26.36393 4.06020516,26.4834443 C2.83146526,27.049648 0.942142611,28.448481 1.00135899,29.0146848 L1.00135899,29.3124778 C1.09218412,30.4135177 1.21061688,31.21875 2.35173255,31.21875 L23.8372761,31.21875 C24.9783918,31.21875 25.0972247,30.415106 25.1876497,29.3124778 C25.1876497,29.1929635 25.1876497,29.1048168 25.2172579,29.0146848 C25.2768744,28.3897165 23.5371931,27.1084125 22.3072529,26.4834443 C22.097995,26.3933123 21.797912,26.2444158 21.436612,26.0367548 C19.3360309,24.9944793 17.265058,23.9815861 16.8761505,23.7131753 C16.6965008,23.5940581 16.6056756,23.4451616 16.6056756,23.2371036 C16.5464593,22.6415176 17.265058,21.8676529 17.6855744,21.4209634 C18.1653071,20.9448916 19.2155976,19.2168981 19.6957304,16.0606894 C20.145855,13.1121417 19.3656391,10.6710332 17.474716,9.24083274 C15.5257769,7.78125 13.1251128,7.78125 13.0955046,7.78125 Z"></path>
                    </g>
                </g>
            </g>
        </g>
    </g>
</svg>