<?xml version="1.0" encoding="UTF-8"?>
<svg width="187px" height="132px" viewBox="0 0 187 132" version="1.1" xmlns="http://www.w3.org/2000/svg" xmlns:xlink="http://www.w3.org/1999/xlink">
    <!-- Generator: Sketch 41.2 (35397) - http://www.bohemiancoding.com/sketch -->
    <title>people</title>
    <desc>Created with Sketch.</desc>
    <defs></defs>
    <g id="Welcome" stroke="none" stroke-width="1" fill="none" fill-rule="evenodd">
        <g id="Desktop-HD" transform="translate(-322.000000, -1970.000000)" fill="#1FCDCA">
            <g id="contact" transform="translate(-10.000000, 1748.000000)">
                <g id="text" transform="translate(246.000000, 222.000000)">
                    <g id="people" transform="translate(86.000000, 0.000000)">
                        <path d="M114,125.108087 L114,125 C110.435826,126.527022 106.753785,127.893062 103,129.194711 C104.160727,130.307781 105.803168,131 107.63522,131 C110.197531,131 112.398556,129.643158 113.410669,127.686087 C113.400419,127.550402 113.39017,127.417018 113.39017,127.281334 C113.379921,126.490226 113.610529,125.754312 114,125.108087 Z" id="Fill-1"></path>
                        <path d="M141.350301,29.5036858 C143.571781,29.5036858 145.658939,30.0417692 147.474869,31 C150.019238,27.267814 152.248467,22.6511073 153.852582,16.9877178 C154.457031,14.8869811 153.147392,12.7174484 150.936244,12.1400529 C148.72768,11.5651145 146.446789,12.8132715 145.839757,14.9140081 C143.843008,21.8255547 141.006747,26.5847675 138,29.9361181 C138.898924,29.70516 139.836595,29.5601968 140.805264,29.5233418 C140.996414,29.5036858 141.169483,29.5036858 141.350301,29.5036858 Z" id="Fill-2"></path>
                        <path d="M84.3722846,15.0213847 C83.7588015,12.8432392 81.4438202,11.5490896 79.2022472,12.1452136 C78.2898876,12.3846823 77.5322097,12.9018326 77,13.5692877 C81.0662921,15.6786496 83.8400749,19.8489702 83.8400749,24.6357951 C83.8400749,26.8852716 83.2265918,28.9946335 82.1516854,30.8263137 C84.5872659,34.6858346 87.3426966,37.7021202 90.1086142,40 C90.1794007,38.5173326 90.2318352,36.7951965 90.2213483,34.8157591 C90.2213483,33.8604321 90.2108614,32.8541544 90.1898876,31.7994735 C90.1689139,30.7957433 90.4573034,29.820036 91,28.9844434 C88.4490637,25.6293351 86.0947566,21.1329296 84.3722846,15.0213847 Z" id="Fill-3"></path>
                        <path d="M127.858566,97.8559671 L128,98 L128,96.6831276 C127.306773,96.5288066 126.63745,96.2962963 126,96 L127.858566,97.8559671 Z" id="Fill-4"></path>
                        <path d="M111.558054,56.6652966 C111.540807,54.3333956 113.415768,52.4297525 115.73668,52.4099486 L128.47952,52.313405 L128.47952,45.4662307 C128.979674,45.3325549 129.52664,45.1765997 130.105636,44.9835124 C129.844472,44.0651098 129.68186,43.0971976 129.642439,42.1020551 C129.556206,39.9063055 130.05636,37.8269033 131,36 C129.208808,36.9382064 127.602402,37.4803363 126.400062,37.7897711 C125.840776,37.9333489 125.370188,38.0298926 124.995688,38.0893041 C124.889744,38.0794021 124.773945,38.0695002 124.658146,38.0695002 L105.543887,38.0695002 C105.428087,38.0695002 105.322144,38.0794021 105.206344,38.0893041 C104.100092,37.9061186 102.000924,37.4110229 99.5297197,36.1658571 C99.4705882,39.4235871 99.2981213,42.2085007 99,44.5973377 C99.9904527,44.9637085 100.904527,45.2459131 101.722513,45.4662307 L101.722513,87.598879 C107.987989,87.5592714 112.41546,86.8834657 112.915614,86.7968239 L113.070835,86.7671182 C113.359101,86.7176086 113.647367,86.6903783 113.935633,86.6903783 L113.965199,86.6903783 L113.965199,79.7466604 L116.256545,79.7466604 L116.256545,86.9131714 C117.392362,87.0963568 118.574992,87.5122373 119.373268,88.2746847 L120.124731,89 C118.843548,86.3908454 118.535571,83.4499766 119.267324,80.5982251 C120.075454,77.4444652 122.058824,74.8056049 124.840468,73.1519851 C125.976286,72.4761794 127.208192,72.0008874 128.486911,71.7310603 L128.486911,60.7448856 L115.813058,60.8414292 C113.465045,60.8612331 111.577764,58.9749183 111.558054,56.6652966 Z" id="Fill-5"></path>
                        <path d="M129,121.196139 L129,116 C125.84466,118.272587 122.50281,120.244015 119,122 C123.739397,121.974517 126.922841,121.601544 129,121.196139 Z" id="Fill-6"></path>
                        <path d="M105,98 C103.672748,98.0607766 102.336374,98.0967923 101,98.0967923 L101,102 C102.532497,100.883512 103.841505,99.5734384 105,98 Z" id="Fill-7"></path>
                        <path d="M126,23.9963485 C126,38.6678838 104,38.6678838 104,23.9963485 C104,9.33455048 126,9.33455048 126,23.9963485" id="Fill-8"></path>
                        <path d="M173.13012,19.67468 C173.905624,18.0567101 173.226748,16.10416 171.621231,15.3251374 C170.013237,14.543618 168.078193,15.2177721 167.305166,16.8457295 L154.307419,43.9891726 C153.212298,49.3923932 148.576616,53.5771426 142.865635,53.8218356 C142.692199,53.831823 142.528674,53.831823 142.352761,53.831823 C141.086683,53.831823 139.865201,53.6370674 138.725483,53.2750216 L116.213562,53.4498023 C114.422222,53.4597898 112.990141,54.9329414 113.000051,56.7381764 C113.009962,58.5334239 114.461864,59.9666257 116.230906,59.9766131 L116.260637,59.9766131 L141.017308,59.7818575 C145.519197,72.4010242 147.677229,85.2748714 147.68714,97.7517167 C150.078072,97.1449779 152.466525,96.5507236 154.857457,95.9464817 L154.857457,125.986291 C154.857457,128.757813 157.084863,131 159.832576,131 C162.580289,131 164.807696,128.757813 164.807696,125.986291 L164.807696,93.4496145 C165.360212,93.3122868 165.91025,93.177456 166.462766,93.0301408 L166.462766,125.986291 C166.462766,128.757813 168.687695,131 171.437885,131 C174.185598,131 176.410527,128.757813 176.410527,125.986291 L176.410527,90.5232862 C179.943655,89.6368983 183.466872,88.7480136 187,87.8716132 C180.099747,72.4409741 170.828384,58.795595 159.909384,47.3050122 L173.13012,19.67468 Z" id="Fill-9"></path>
                        <path d="M152.98759,41.5492362 C153.596194,56.1958304 131.62072,57.108808 131.012116,42.4524753 C130.410815,27.7985773 152.388723,26.8953382 152.98759,41.5492362" id="Fill-10"></path>
                        <path d="M79,113.382 C79.25,113.422 79.5,113.46 79.742,113.5 L79.15,113 L79,113.382 Z" id="Fill-11"></path>
                        <path d="M79,128 C80.1327055,129.993358 82.7808219,131.250356 85.6113014,130.957886 C86.484589,130.868693 87.2859589,130.642599 88,130.302422 C86.6643836,129.831566 85.4392123,129.402196 85.0179795,129.288112 C83.4743151,128.850444 81.447774,128.381663 79,128 Z" id="Fill-12"></path>
                        <path d="M83,96 L88,100 L87.5563771,96.7527352 C86.012939,96.5382932 84.4879852,96.2910284 83,96 Z" id="Fill-13"></path>
                        <path d="M66.0982468,107.217448 L69.6707664,79.8783149 L73.3510128,79.8783149 L73.9071834,84.1438364 C74.4859016,83.9199898 75.1122199,83.7931434 75.7585803,83.7931434 C76.314751,83.7931434 76.8634058,83.8801948 77.3819974,84.0642465 C80.52361,85.1337359 83.6952859,85.9022759 86.7567298,86.4544309 L85.1232916,73.9115591 L85.1232916,54.0439287 C85.6919887,54.5214681 86.318307,54.9666742 87.0698889,55.354675 C87.9317029,55.7924195 88.9789071,56.1530612 90.2215226,56.1829074 L90.3192283,56.1829074 L90.3492916,56.1829074 C91.2211267,56.1829074 92.150583,55.9764711 92.9823337,55.5884703 C94.4679607,54.8796227 95.497628,53.6957229 96.2116309,52.4521306 C97.2788773,50.5568959 97.8851534,48.320917 98.3335973,45.3387827 C98.7745254,42.3566484 99,38.6159228 99,33.8455028 C99,32.8556033 98.9899789,31.8159602 98.9699367,30.7365221 C98.9323576,28.5303894 97.1010029,26.7719499 94.8713097,26.8117448 C92.6491324,26.8515398 90.8779042,28.6771332 90.9154833,30.883266 C90.9355255,31.9229091 90.9455466,32.9128086 90.9455466,33.8455028 C90.9555677,40.7051578 90.3893759,45.0477821 89.7329944,47.1743249 C89.7129522,47.2340173 89.69291,47.2912226 89.6728678,47.350915 C89.5651411,47.2340173 89.4498985,47.1171197 89.3421717,46.9803245 C89.3221296,46.960427 89.3020874,46.9430167 89.2820452,46.9131705 C88.3826521,45.8934249 87.4331535,44.4831912 86.7667509,43.3664453 C86.4260337,42.8118032 86.1504537,42.3268022 85.9750845,41.9860579 C85.8773789,41.811955 85.8072312,41.6851086 85.7696521,41.5980571 C85.7195467,41.5110056 85.7095256,41.4911082 85.7095256,41.4911082 C85.4765352,41.0359534 85.163376,40.6454654 84.8001114,40.317157 C84.2038564,38.9467183 82.8334719,37.9841779 81.2275918,37.9841779 L64.3470608,37.9841779 L43.5132087,2.00705307 C42.405878,0.0944081364 39.9406891,-0.56718296 38.0216498,0.529665437 C36.0950947,1.62900102 35.4286921,4.07639064 36.5335176,5.99152276 L50.6757849,30.4057265 C54.9322441,32.4750641 57.8007819,36.907227 57.5953495,41.8990064 C57.5853284,42.0358016 57.5753073,42.162648 57.5652862,42.296956 L57.9085087,42.8913931 L57.9085087,73.8941488 L52.6724876,114 C56.5281031,113.104614 60.3336131,112.502715 64.091523,112.191817 L66.0982468,107.217448 Z" id="Fill-14"></path>
                        <path d="M59.5503356,128 C57.0628432,128.326986 54.5533862,128.760871 52,129.301655 C53.0515558,130.177809 54.4874924,130.791956 56.1513118,130.955449 C57.9304454,131.13571 59.6464308,130.758419 61,130.014317 C60.5057962,129.563663 60.0967053,129.056416 59.7754728,128.498863 C59.7013423,128.33537 59.6272117,128.171877 59.5503356,128 Z" id="Fill-15"></path>
                        <path d="M82,23.9963485 C82,38.6678838 60,38.6678838 60,23.9963485 C60,9.33455048 82,9.33455048 82,23.9963485" id="Fill-16"></path>
                        <path d="M139.324403,77.4806254 C146.653165,89.9575384 128.005323,100.993883 120.67656,88.5193746 C113.345401,76.0424616 131.993243,65.0061173 139.324403,77.4806254" id="Fill-17"></path>
                        <path d="M61,127.762441 C61.5807653,129.42139 62.8217166,130.83899 64.5466391,131.54525 C65.3036194,131.852651 66.0879007,132 66.8548087,132 C69.3267839,132 71.6622544,130.48332 72.642606,127.991087 L73,127.068884 C72.1387797,127.020614 71.2452947,127.00029 70.3145812,127.00029 C67.281696,126.990128 64.1693899,127.246719 61,127.762441 Z" id="Fill-18"></path>
                        <path d="M118.354603,89.429683 C117.528959,88.6341644 115.944816,88.2011606 114.450201,88.2011606 C113.945365,88.0828398 113.410686,88.0627001 112.866059,88.1608812 C112.866059,88.1608812 112.826269,88.170951 112.691977,88.1910907 C111.74945,88.349691 107.143748,89.0168189 100.772362,89.0168189 C93.8737577,89.0168189 84.9085559,88.2213003 76.2716223,85.2204831 C74.1826432,84.492936 71.9096351,85.6257949 71.2008743,87.7379472 C70.4821661,89.852617 71.5987751,92.1535791 73.6877542,92.8710564 C83.4984951,96.2645979 93.2818803,97.100396 100.772362,97.100396 C103.326388,97.100396 105.609344,97.0022149 107.551597,96.8637543 C104.716554,101.495888 100.996181,104.8995 93.7295186,107.346475 L80.0715747,95.6654415 C78.5346829,94.3563602 76.4755464,93.8755245 74.5332933,94.3563602 C72.5910402,94.8497831 70.9870027,96.2545281 70.2483994,98.1426261 L64.5186283,112.648254 C66.1898115,112.529933 67.8585079,112.461962 69.5097961,112.461962 C72.5039994,112.461962 75.2818441,112.658324 77.8358697,112.983077 L78.6316712,110.966588 L81.7328104,113.622512 C84.3340867,114.133558 86.6369374,114.752854 88.6189806,115.412429 L88.8328523,116.532701 C84.2196902,114.959286 77.7090388,113.484052 69.5197436,113.473982 C60.9723376,113.473982 50.6468126,115.097746 38.9410693,119.807922 C35.7329943,121.094346 34.1712338,124.772361 35.4420294,128.007302 C36.4143994,130.487004 38.7645008,132 41.2414331,132 C42.009879,132 42.7857855,131.853987 43.5442839,131.549374 C53.8325057,127.418215 62.51669,126.111652 69.5097961,126.111652 C76.4084007,126.111652 81.6830728,127.388006 85.1796258,128.619046 C86.9279023,129.228272 88.2210798,129.827429 89.0367764,130.250362 C89.4446247,130.456795 89.7355896,130.622947 89.9022106,130.723646 C89.9793039,130.771478 90.0365021,130.801687 90.0464496,130.811757 L90.0563971,130.811757 C91.5336038,131.775946 93.2619852,132.03021 94.8560752,131.657625 C95.3211217,131.617345 95.8085502,131.509095 96.2835442,131.332872 C108.678153,126.77878 120.908628,121.831963 130.57513,112.922657 C130.662171,113.020839 130.741751,113.12909 130.828792,113.227271 C131.751424,114.377752 132.614372,115.636484 133.188841,116.786965 C133.770771,117.937446 134.014485,118.931844 134.004537,119.503308 C133.99459,119.943865 133.937392,120.122605 133.750876,120.417148 C133.489753,120.830012 132.547226,121.733782 130.003148,122.491538 C127.486425,123.249295 123.552181,123.78048 117.996492,123.78048 C115.79063,123.78048 114.002563,125.588019 114.002563,127.82101 C114.002563,130.054 115.79063,131.864057 117.996492,131.864057 C126.058956,131.843917 131.537553,130.930078 135.558837,128.971491 C137.550828,127.98968 139.212064,126.660459 140.358515,124.968723 C141.504967,123.287057 142.009803,121.300778 141.999856,119.503308 C141.979961,116.945565 141.144369,114.722644 140.124749,112.766575 C138.570449,109.826177 136.471522,107.356544 134.753088,105.528866 C133.703625,104.416146 132.79094,103.552656 132.216471,103.039094 C132.119482,102.903151 132.012547,102.77476 131.905611,102.666509 C127.379489,98.2609469 122.873263,93.845315 118.354603,89.429683 Z" id="Fill-19"></path>
                        <path d="M44.0940391,54.1462025 C38.5305989,53.9124834 33.9872466,49.9516908 32.7492759,44.7651162 C32.5734841,44.7153887 32.4199757,44.6681476 32.2639914,44.6184202 C31.8108941,44.2603824 30.2337195,42.9376318 28.7258713,40.8416192 C26.965477,38.382596 25.3214519,34.9638328 25.3214519,30.6325706 C25.3288798,27.3878535 26.2202186,23.5240294 28.9561338,18.9093206 C29.874708,17.3752283 29.3720919,15.3736979 27.8345324,14.4611989 C26.2969728,13.5387544 24.3137438,14.0434882 23.4050733,15.587526 C20.1566383,21.0476017 18.8493413,26.1446668 18.8592451,30.6425161 C18.8592451,36.8783402 21.3153789,41.7441727 23.7046622,44.9590533 C24.7098944,46.3190995 25.7176025,47.4056446 26.5495188,48.2112295 C15.8707839,59.5366597 6.78903111,72.940698 0,88.0628202 C3.53069233,88.9454827 7.05148089,89.8306315 10.5796973,90.7033486 L10.5796973,126.007362 C10.5796973,128.767237 12.8055685,131 15.5513875,131 C18.2996823,131 20.5230776,128.767237 20.5230776,126.007362 L20.5230776,93.1897218 C21.0752126,93.3264723 21.6248715,93.4632229 22.1770064,93.6074325 L22.1770064,126.007362 C22.1770064,128.767237 24.4004018,131 27.1486966,131 C29.8945156,131 32.1203868,128.767237 32.1203868,126.007362 L32.1203868,96.0938058 C34.5096702,96.6955081 36.8964776,97.2897513 39.285761,97.8914537 C39.285761,89.8679271 40.1944315,81.6803 42.0414837,73.5125638 C41.5784827,73.1445806 41.0956741,72.7268699 40.5633467,72.2693772 C38.4736522,70.4244882 36.0274222,67.9953016 33.0761002,64.8400939 C32.3036065,64.014618 31.8975521,62.935532 31.9346912,61.7992594 C31.9743063,60.6629868 32.4472111,59.6137373 33.2716995,58.8379888 C34.054097,58.099536 35.0791367,57.6917708 36.161123,57.6917708 C37.3223395,57.6917708 38.443941,58.1766136 39.2486219,59.031926 C41.9746333,61.9459554 44.2871625,64.2582826 46.1441185,65.8893434 C47.3622816,66.9758885 48.231337,67.5974818 48.7067177,67.9082785 L48.3675138,68.8804504 C47.7386247,68.4826307 46.7432963,67.7541234 45.4954218,66.6377418 C43.7449313,65.0912176 41.4423059,62.8286179 38.5305989,59.7107059 C37.3124358,58.4103326 35.2623563,58.3432006 33.967439,59.5664962 C32.660142,60.7897919 32.6031954,62.8485089 33.8213585,64.1513685 C36.8197234,67.3662491 39.2486219,69.7556538 41.2293749,71.5135197 C43.2027002,73.2415491 44.6932169,74.3479852 46.2010651,75.0665471 C46.2208727,75.0764926 46.2505839,75.0864381 46.2703915,75.0963836 C47.0626927,75.4469622 47.894609,75.7378679 49.0261142,75.6881404 C49.5856769,75.658304 50.2244698,75.5041488 50.806316,75.1734612 C51.3856863,74.852719 51.8783986,74.3778217 52.2076988,73.8929789 L52.2176025,73.8830334 C52.9331496,72.774111 52.9900962,71.8243164 53,71.0261906 C52.9801925,69.4249662 52.5741381,68.0151926 52.071522,66.4711548 C50.55377,61.9459554 47.7881435,56.7195988 47.7485284,56.6425213 C47.6618705,56.4784206 47.555405,56.3118336 47.4390358,56.167624 C47.4489395,56.147733 47.4489395,56.1377875 47.4588433,56.1178965 C47.4489395,56.1178965 47.0428852,55.3322025 46.0277492,54.0790704 C45.5622723,54.1263115 45.0992712,54.1660935 44.6238905,54.1660935 C44.4406708,54.156148 44.2673549,54.156148 44.0940391,54.1462025 Z" id="Fill-20"></path>
                        <path d="M45.4524753,31.0120174 C60.108808,31.6205568 59.1958304,53.5961317 44.5492362,52.9875923 C29.8953382,52.3887895 30.7985773,30.4132146 45.4524753,31.0120174" id="Fill-21"></path>
                    </g>
                </g>
            </g>
        </g>
    </g>
</svg>