<?xml version="1.0" encoding="UTF-8"?>
<svg width="238px" height="87px" viewBox="0 0 238 87" version="1.1" xmlns="http://www.w3.org/2000/svg" xmlns:xlink="http://www.w3.org/1999/xlink">
    <!-- Generator: Sketch 41.2 (35397) - http://www.bohemiancoding.com/sketch -->
    <title>portable</title>
    <desc>Created with Sketch.</desc>
    <defs></defs>
    <g id="Welcome" stroke="none" stroke-width="1" fill="none" fill-rule="evenodd">
        <g id="Desktop-HD" transform="translate(-1001.000000, -644.000000)">
            <g id="features" transform="translate(0.000000, 459.000000)">
                <g transform="translate(135.000000, 169.000000)" id="sails-copy-2">
                    <g transform="translate(800.000000, 16.000000)">
                        <g id="portable" transform="translate(66.000000, 0.000000)">
                            <g id="Page-1" fill="#FFFFFF">
                                <polygon id="Fill-2" points="39.4100085 30.8125 39.4100085 29.2895126 40.78125 28.6559499 33.0899915 24.46875 33.0899915 25.9917374 31.71875 26.7512004"></polygon>
                                <polygon id="Fill-4" points="39.4100085 53.46875 31.71875 57.5300496 32.129683 57.7818502 33.0899915 58.2895126 33.0899915 59.8125 36.7993756 57.7818502 40.78125 55.7512004 39.4100085 54.9917374"></polygon>
                                <path d="M61.1687187,20.7691176 L59.8125,19.9375 L58.4562813,20.7691176 L41.2333887,30.8860235 L39.875,31.7198588 L39.875,55.2801412 L41.2333887,56.1139765 L46.3848498,59.1610235 L51.1327003,61.9330824 L58.4562813,66.2308824 L59.8125,67.0625 L61.1687187,66.2308824 L68.4922997,61.9330824 L73.2401502,59.1610235 L78.3916113,56.1139765 L79.75,55.2801412 L79.75,31.8573529 L78.3916113,31.0257353 L61.1687187,20.7691176 Z M58.4562813,45.8551412 L58.4562813,60.9639706 L55.3380632,59.1610235 L45.7078254,53.4794118 L44.3516067,52.6477941 L44.3516067,36.0154412 L45.2998748,36.5698529 L57.1000626,43.5 L58.4562813,44.3316176 L58.4562813,45.8551412 Z M59.8125,41.8367647 L58.4562813,41.0051471 L46.6582635,34.075 L45.7078254,33.5205882 L58.4562813,26.0360294 L59.8125,25.2044118 L61.1687187,26.0360294 L73.9171746,33.5205882 L72.9667365,34.075 L61.1687187,41.0051471 L59.8125,41.8367647 Z M75.2733933,50.9845588 L75.2733933,52.6477941 L73.9171746,53.4794118 L64.2869368,59.1610235 L61.1687187,60.9639706 L61.1687187,44.1919059 L62.5249374,43.3625059 L74.3251252,36.4301412 L75.2733933,35.8757294 L75.2733933,50.9845588 Z" id="Fill-5"></path>
                                <path d="M1.43945455,27.3067449 L14.4176136,34.514324 L15.8570682,35.34375 L17.3011364,34.514324 L30.2746818,27.3067449 L31.71875,26.4728835 L31.71875,8.87086654 L30.2746818,8.0392228 L29.2666023,7.48479364 L17.3011364,0.831643738 L15.8570682,0 L14.4176136,0.831643738 L2.44984091,7.48479364 L1.43945455,8.0392228 L0,8.87086654 L0,26.6125996 L1.43945455,27.3067449 Z M28.4015455,12.3371576 L28.4015455,24.809596 L26.9597841,25.6434574 L17.3011364,31.0480329 L17.3011364,18.4358784 L18.7405909,17.6020169 L27.3911591,12.7518706 L28.4015455,12.3371576 Z M9.08194318,7.48479364 L14.4176136,4.57514942 L15.8570682,3.74128796 L17.3011364,4.57514942 L22.6345,7.48479364 L26.9597841,9.84000871 L26.3830795,10.2569394 L25.9517045,10.534154 L17.3011364,15.3843003 L15.8570682,16.2181617 L14.4176136,15.3843003 L5.76704545,10.534154 L5.33336364,10.2569394 L4.75665909,9.84000871 L9.08194318,7.48479364 Z M3.31489773,23.0088101 L3.31489773,12.1974415 L4.32297727,12.7518706 L12.9735455,17.6020169 L14.4176136,18.4358784 L14.4176136,30.7708183 L4.75665909,25.5037413 L3.31489773,24.6720976 L3.31489773,23.0088101 Z" id="Fill-6"></path>
                                <path d="M29.2666023,59.1388259 L17.3011364,52.485676 L15.8570682,51.65625 L14.4176136,52.485676 L2.44984091,59.1388259 L1.43945455,59.6932551 L0,60.5271165 L0,78.1291335 L1.43945455,78.9607772 L2.44984091,79.5152064 L14.4176136,86.1683563 L15.8570682,87 L17.3011364,86.1683563 L29.2666023,79.5152064 L30.2746818,78.9607772 L31.71875,78.1291335 L31.71875,60.5271165 L30.2746818,59.6932551 L29.2666023,59.1388259 Z M14.4176136,71.7531981 L14.4176136,82.4248506 L9.08194318,79.5152064 L4.75665909,77.1599913 L3.31489773,76.3261298 L3.31489773,63.8536915 L4.32297727,64.4081206 L12.9735455,69.2582669 L14.4176136,70.0899107 L14.4176136,71.7531981 Z M15.8570682,67.7346956 L14.4176136,66.9008341 L5.76704545,62.0506879 L5.33336364,61.7734733 L4.75665909,61.4962587 L9.08194318,59.1388259 L14.4176136,56.2291817 L15.8570682,55.397538 L17.3011364,56.2291817 L22.6345,59.1388259 L26.9597841,61.4962587 L26.3830795,61.9109717 L25.9517045,62.190404 L17.3011364,67.0405503 L15.8570682,67.7346956 Z M28.4015455,74.6628424 L28.4015455,76.1886314 L27.6818182,76.7430606 L26.9597841,77.1599913 L22.6345,79.5152064 L17.3011364,82.4248506 L17.3011364,70.0899107 L18.7405909,69.2582669 L27.3911591,64.4081206 L28.4015455,63.8536915 L28.4015455,74.6628424 Z" id="Fill-9"></path>
                            </g>
                            <g id="Page-1" transform="translate(181.000000, 19.000000)" fill="#FFFFFF">
                                <path d="M0,29.8571429 C0.170457143,33.8210367 1.18777143,37.4397167 2.88474286,40.7142857 L16.2857143,40.7142857 C15.6082286,37.4397167 15.2684,33.6478783 15.2684,29.8571429 L0,29.8571429 Z" id="Fill-2"></path>
                                <path d="M16.2857143,15.3809524 L2.88474286,15.3809524 C1.35714286,18.6544185 0.339828571,22.4462568 0,26.2380952 L15.0990286,26.2380952 C15.2684,22.4462568 15.7776,18.8275769 16.2857143,15.3809524 Z" id="Fill-3"></path>
                                <path d="M36.9316223,15.3809524 L20.207212,15.3809524 C19.5175342,18.6544185 19.1721436,22.2742014 19,26.2380952 L37.9666907,26.2380952 C38.1388342,22.2742014 37.6213,18.6544185 36.9316223,15.3809524 Z" id="Fill-4"></path>
                                <path d="M20.0683777,40.7142857 L36.792788,40.7142857 C37.4824658,37.4397167 37.8278564,33.8210367 38,29.8571429 L19.0333093,29.8571429 C18.8611658,33.8210367 19.3787,37.4397167 20.0683777,40.7142857 Z" id="Fill-5"></path>
                                <path d="M28.5882532,56.0952381 C31.4168821,56.0952381 34.245511,52.067516 36.1904762,45.2380952 L20.8095238,45.2380952 C22.9309955,51.89269 25.7596243,56.0952381 28.5882532,56.0952381 Z" id="Fill-6"></path>
                                <path d="M35.2857143,11.7619048 C33.4339081,5.10774381 30.5727114,0.904761905 28.047619,0.904761905 C25.3544745,0.904761905 22.66133,4.93289976 20.8095238,11.7619048 L35.2857143,11.7619048 Z" id="Fill-7"></path>
                                <path d="M23.5238095,57 C20.860991,54.6140167 18.7300543,50.5228245 17.3094298,45.2380952 L4.52380952,45.2380952 C8.96297689,51.3748835 15.7115114,55.6362693 23.5238095,57 Z" id="Fill-8"></path>
                                <path d="M23.5238095,0 C15.7115114,1.36373073 8.96297689,5.79640108 4.52380952,11.7619048 L17.3094298,11.7619048 C18.7300543,6.47826644 20.860991,2.38707426 23.5238095,0 Z" id="Fill-9"></path>
                                <path d="M57,29.8571429 L41.7422913,29.8571429 C41.5711399,33.8210367 41.2277399,37.4397167 40.7142857,40.7142857 L54.2571891,40.7142857 C55.6285945,37.4397167 56.6566001,33.6478783 57,29.8571429 Z" id="Fill-10"></path>
                                <path d="M52.4761905,45.2380952 L39.6905702,45.2380952 C38.2699457,50.5228245 36.139009,54.6140167 33.4761905,57 C41.2884886,55.6362693 48.0370231,51.3748835 52.4761905,45.2380952 Z" id="Fill-11"></path>
                                <path d="M52.4761905,11.7619048 C48.0370231,5.79640108 41.2884886,1.36373073 33.4761905,0 C36.139009,2.38707426 38.2699457,6.47826644 39.6905702,11.7619048 L52.4761905,11.7619048 Z" id="Fill-12"></path>
                                <path d="M41.7423605,26.2380952 L57,26.2380952 C56.8288371,22.2742014 55.8007623,18.6555214 54.0858413,15.3809524 L40.7142857,15.3809524 C41.2277745,18.6555214 41.7423605,22.2742014 41.7423605,26.2380952 Z" id="Fill-13"></path>
                            </g>
                            <g id="Page-1" transform="translate(81.000000, 45.000000)" stroke="#FFFFFF" stroke-width="3.75" stroke-dasharray="7.5,3.75">
                                <path d="M29.4339623,1 L0.339622642,1" id="Stroke-4"></path>
                                <path d="M94.6415094,1 L65.5471698,1" id="Stroke-4"></path>
                            </g>
                            <path d="M154.995966,36.4661667 C155,35.5568378 154.894117,34.6626307 154.610753,33.7966511 C153.774778,31.2763381 152.373084,29.1844783 150.021465,27.8265336 C144.557884,24.6680773 139.086235,21.5217185 133.634755,18.3471322 C132.153396,17.4851851 130.574221,17.0476588 128.876054,17.0043094 C127.005448,16.9569275 125.228624,17.2956576 123.581886,18.249344 C118.078976,21.4430847 112.540772,24.5813785 107.061056,27.8184686 C103.795815,29.7480203 102.074454,32.716949 102.035126,36.5054836 C101.967563,42.8415506 102.018992,49.1816501 102.014958,55.5177171 C102.014958,56.4945904 102.132942,57.4472687 102.460677,58.3697033 C103.32287,60.8184395 104.713471,62.8508199 107.017695,64.1775127 C112.441948,67.3006846 117.866201,70.4238565 123.270286,73.5742478 C124.689123,74.4009105 126.185608,74.8928756 127.816212,74.9795744 C129.809844,75.08946 131.704652,74.76686 133.461308,73.7466372 C138.928923,70.5770916 144.396538,67.4065377 149.883313,64.2642114 C151.412067,63.3861344 152.593927,62.1925141 153.491414,60.7004888 C154.358649,59.2588697 154.968739,57.723495 154.984874,56.0217797 C155.012101,52.682869 154.991933,49.3429501 154.991933,46.0040394 L155,46.0040394 C154.995966,42.8264287 154.991933,39.6437774 154.995966,36.4661667 Z M122.486749,53.3482316 C122.916333,53.8049123 122.896165,54.5216893 122.439354,54.9511507 C122.218512,55.1558001 121.939181,55.2626614 121.659851,55.2626614 C121.360352,55.2626614 121.05682,55.1437026 120.835977,54.9078013 L113.162963,46.7762633 C112.749514,46.338737 112.749514,45.6572443 113.162963,45.2166936 L120.835977,37.0922125 C121.265561,36.6355317 121.986577,36.6153692 122.439354,37.0448306 C122.896165,37.4742919 122.916333,38.1951015 122.486749,38.6477497 L115.545843,45.9919419 L122.486749,53.3482316 Z M131.543306,38.2465158 L127.654866,54.2898205 C127.528814,54.809005 127.063936,55.1558001 126.551662,55.1558001 C126.464939,55.1558001 126.37519,55.1437026 126.284433,55.1245482 C125.673334,54.9783701 125.299213,54.3644218 125.449467,53.7534979 L129.336899,37.7101932 C129.486144,37.1002775 130.097242,36.7302955 130.707332,36.8754655 C131.31843,37.0256762 131.692551,37.635592 131.543306,38.2465158 Z M143.832835,46.7792877 L136.159821,54.9078013 C135.934945,55.1437026 135.635446,55.2626614 135.335947,55.2626614 C135.056617,55.2626614 134.777287,55.1598326 134.556444,54.9511507 C134.099633,54.5216893 134.079465,53.8008798 134.509049,53.3482316 L141.449955,46.0040394 L134.509049,38.6517822 C134.079465,38.1951015 134.099633,37.4783244 134.556444,37.0488631 C135.013255,36.6194017 135.730237,36.6395642 136.159821,37.096245 L143.832835,45.2237505 C144.246284,45.6612768 144.246284,46.3427695 143.832835,46.7792877 Z" id="Page-1" fill="#00C1BE"></path>
                        </g>
                    </g>
                </g>
            </g>
        </g>
    </g>
</svg>