<?xml version="1.0" encoding="UTF-8"?>
<svg width="521px" height="263px" viewBox="0 0 521 263" version="1.1" xmlns="http://www.w3.org/2000/svg" xmlns:xlink="http://www.w3.org/1999/xlink">
    <!-- Generator: Sketch 41.2 (35397) - http://www.bohemiancoding.com/sketch -->
    <title>preview</title>
    <desc>Created with Sketch.</desc>
    <defs>
        <rect id="path-1" x="10" y="8" width="390" height="211"></rect>
        <mask id="mask-2" maskContentUnits="userSpaceOnUse" maskUnits="objectBoundingBox" x="0" y="0" width="390" height="211" fill="white">
            <use xlink:href="#path-1"></use>
        </mask>
    </defs>
    <g id="Welcome" stroke="none" stroke-width="1" fill="none" fill-rule="evenodd">
        <g id="Desktop-HD" transform="translate(-674.000000, -119.000000)">
            <g id="header">
                <g id="preview" transform="translate(674.000000, 119.000000)">
                    <g id="monitor">
                        <use id="background" stroke="#979797" mask="url(#mask-2)" stroke-width="2" fill="#FFFFFF" xlink:href="#path-1"></use>
                        <g id="wetter" transform="translate(10.000000, 8.000000)">
                            <rect id="background" fill="#E0EAFC" x="0" y="0" width="390" height="211"></rect>
                            <rect id="background" fill="#FFFFFF" x="40" y="25" width="311" height="157"></rect>
                            <rect id="Rectangle-5" fill="#E5E5E5" x="108" y="40" width="176" height="7" rx="3"></rect>
                            <rect id="Rectangle-5-Copy" fill="#E5E5E5" x="66" y="152" width="67" height="4" rx="2"></rect>
                            <rect id="Rectangle-5-Copy-2" fill="#E5E5E5" x="164" y="152" width="67" height="4" rx="2"></rect>
                            <rect id="Rectangle-5-Copy-3" fill="#E5E5E5" x="262" y="152" width="67" height="4" rx="2"></rect>
                            <rect id="Rectangle-5-Copy" fill="#E5E5E5" x="66" y="162" width="67" height="4" rx="2"></rect>
                            <rect id="Rectangle-5-Copy-2" fill="#E5E5E5" x="164" y="162" width="67" height="4" rx="2"></rect>
                            <rect id="Rectangle-5-Copy-3" fill="#E5E5E5" x="262" y="162" width="67" height="4" rx="2"></rect>
                            <circle id="Oval" fill="#ABABAB" cx="98.5" cy="133.5" r="8.5"></circle>
                            <circle id="Oval-Copy" fill="#ABABAB" cx="196.5" cy="133.5" r="8.5"></circle>
                            <circle id="Oval-Copy-2" fill="#ABABAB" cx="295.5" cy="133.5" r="8.5"></circle>
                            <g id="icon" transform="translate(164.000000, 61.000000)">
                                <path d="M22.07,28.492 L26.656,30.855 L26.164,25.719 L31.305,26.145 L28.883,21.59 L33.797,20.016 L29.816,16.734 L33.754,13.402 L28.82,11.895 L31.18,7.309 L26.043,7.801 L26.469,2.66 L21.914,5.082 L20.34,0.168 L17.059,4.148 L13.727,0.215 L12.219,5.148 L7.633,2.789 L8.129,7.922 L2.988,7.496 L5.41,12.051 L0.496,13.625 L4.477,16.906 L0.539,20.242 L5.473,21.75 L3.113,26.336 L8.246,25.844 L7.82,30.984 L12.375,28.562 L13.949,33.477 L17.23,29.496 L20.562,33.434 L22.07,28.492 Z M17.145,27.168 C11.438,27.168 6.793,22.527 6.793,16.816 C6.793,11.109 11.434,6.465 17.145,6.465 C22.852,6.465 27.496,11.109 27.496,16.816 C27.496,22.527 22.852,27.168 17.145,27.168 Z" id="Fill-1" fill="#7B7B7B"></path>
                                <path d="M52.164,29.941 C51.785,29.941 51.379,29.977 50.918,30.047 L50.199,30.156 L50.336,29.441 C50.496,28.586 50.578,27.719 50.578,26.867 C50.578,19.215 44.355,12.992 36.703,12.992 C29.805,12.992 23.895,18.141 22.961,24.969 L22.863,25.676 L22.223,25.363 C20.652,24.594 18.984,24.203 17.262,24.203 C11.023,24.203 5.945,29.277 5.945,35.52 C5.945,40.715 9.93,44.52 13.355,46.207 C14.832,46.715 15.227,46.836 16.215,46.836 L52.262,46.625 C52.379,46.617 52.512,46.613 52.656,46.613 L52.668,46.613 C57.055,46.363 60.508,42.703 60.508,38.285 C60.508,33.684 56.766,29.941 52.164,29.941 Z" id="Fill-2" fill="#BCBCBC"></path>
                            </g>
                        </g>
                        <path d="M408,224.571429 L408,0 L0,0 L0,224.571429 L181.333333,224.571429 L181.333333,250.771429 L136,250.771429 L136,262 L272,262 L272,250.771429 L226.666667,250.771429 L226.666667,224.571429 L408,224.571429 Z M13.6,209.6 L13.6,11.2285714 L394.4,11.2285714 L394.4,209.6 L13.6,209.6 Z" id="Fill-1" fill="#001323" opacity="0.88037817"></path>
                    </g>
                    <g id="tablet" transform="translate(347.000000, 130.000000)">
                        <rect id="background" fill="#FFFFFF" x="13" y="12" width="146" height="109"></rect>
                        <g id="wetter" transform="translate(13.000000, 12.000000)">
                            <rect id="background" fill="#E0EAFC" x="0" y="0" width="146" height="111"></rect>
                            <rect id="background" fill="#FFFFFF" x="15" y="13" width="116" height="83"></rect>
                            <rect id="Rectangle-5" fill="#E5E5E5" x="41" y="21" width="66" height="3" rx="1.5"></rect>
                            <rect id="Rectangle-5-Copy" fill="#E5E5E5" x="25" y="80" width="25" height="2" rx="1"></rect>
                            <rect id="Rectangle-5-Copy-2" fill="#E5E5E5" x="61" y="80" width="25" height="2" rx="1"></rect>
                            <rect id="Rectangle-5-Copy-3" fill="#E5E5E5" x="98" y="80" width="25" height="2" rx="1"></rect>
                            <rect id="Rectangle-5-Copy" fill="#E5E5E5" x="25" y="85" width="25" height="2" rx="1"></rect>
                            <rect id="Rectangle-5-Copy-2" fill="#E5E5E5" x="61" y="85" width="25" height="2" rx="1"></rect>
                            <rect id="Rectangle-5-Copy-3" fill="#E5E5E5" x="98" y="85" width="25" height="2" rx="1"></rect>
                            <circle id="Oval" fill="#ABABAB" cx="38" cy="70" r="5"></circle>
                            <circle id="Oval-Copy" fill="#ABABAB" cx="74" cy="70" r="5"></circle>
                            <circle id="Oval-Copy-2" fill="#ABABAB" cx="110" cy="70" r="5"></circle>
                            <g id="icon" transform="translate(57.000000, 32.000000)">
                                <path d="M11.335726,16.1564742 L13.745369,17.5043682 L13.4868552,14.5747095 L16.1881145,14.8177069 L14.9155119,12.2194602 L17.4974975,11.3216248 L15.4057424,9.44951815 L17.4749038,7.54889069 L14.8824095,6.68927317 L16.1224352,4.07334354 L13.4232776,4.35398841 L13.6471128,1.42147768 L11.2537582,2.80302621 L10.4267241,1.95313987e-10 L8.70277322,2.27025729 L6.95202515,0.0268095712 L6.15966977,2.84067369 L3.75002672,1.49506139 L4.01064227,4.4230088 L1.30938301,4.18001141 L2.58198561,6.77825813 L0,7.67609355 L2.09175513,9.54762977 L0.0225936876,11.4505389 L2.61508799,12.3107268 L1.37506234,14.9266565 L4.07211812,14.6460116 L3.84828298,17.5779519 L6.24163757,16.1964034 L7.06867163,19 L8.79262254,16.7291723 L10.5433706,18.9754721 L11.335726,16.1564742 Z M8.7479606,15.4012429 C5.74930535,15.4012429 3.30866165,12.7539404 3.30866165,9.49629229 C3.30866165,6.24092588 5.74720362,3.5919121 8.7479606,3.5919121 C11.7466158,3.5919121 14.1867341,6.24092588 14.1867341,9.49629229 C14.1867341,12.7539404 11.7466158,15.4012429 8.7479606,15.4012429 Z" id="Fill-1" fill="#7B7B7B"></path>
                                <path d="M24.4827447,14.5010423 C24.3229844,14.5010423 24.1518428,14.5190987 23.957517,14.5542083 L23.6544362,14.608879 L23.7121859,14.2502593 C23.7796309,13.8214203 23.8141964,13.3865626 23.8141964,12.9592284 C23.8141964,9.12124527 21.1910086,6 17.9654528,6 C15.0577314,6 12.5664828,8.58256338 12.1727728,12.0072561 L12.1314627,12.3618633 L11.8616828,12.2048731 C11.1994575,11.8191688 10.4963437,11.6230565 9.77046717,11.6230565 C7.14053479,11.6230565 5,14.1680025 5,17.299279 C5,19.9049145 6.67980133,21.8133731 8.12354526,22.659515 C8.74614666,22.9143105 8.91265143,22.975 9.32912413,22.975 L24.5240548,22.8691696 C24.5733739,22.865157 24.6294375,22.8631508 24.690138,22.8631508 L24.6951964,22.8631508 C26.5444532,22.7377593 28,20.9020277 28,18.6861091 C28,16.3784039 26.4226307,14.5010423 24.4827447,14.5010423 Z" id="Fill-2" fill="#BCBCBC"></path>
                            </g>
                        </g>
                        <path d="M147.748837,-20.4431781 L25.8491679,-20.4431781 C22.9558575,-20.4431781 20.4431781,-18.1336734 20.4431781,-15.0371883 L20.6334936,-15.0371883 L20.6334936,147.56943 C20.6334936,150.46274 22.9455701,152.97542 26.0394834,152.97542 L147.558521,152.97542 C150.451832,152.97542 152.964511,150.663343 152.964511,147.56943 L152.964511,-15.0371883 C153.154827,-17.9304987 150.832463,-20.4431781 147.748837,-20.4431781 Z M86.7990025,140.808085 C88.7278761,140.808085 90.0729439,142.356327 90.0729439,144.084598 C90.0729439,145.820584 88.5272732,147.35854 86.7990025,147.35854 C85.0604444,147.35854 83.525061,145.812869 83.525061,144.084598 C83.525061,142.34604 84.8701288,140.808085 86.7990025,140.808085 Z M140.033343,-4.63155807 L140.033343,137.140653 L33.9452934,137.140653 L33.9452934,-4.63155807 L140.033343,-4.63155807 Z" id="Page-1" fill="#001323" transform="translate(86.709299, 66.266121) rotate(-90.000000) translate(-86.709299, -66.266121) "></path>
                    </g>
                </g>
            </g>
        </g>
    </g>
</svg>