<?xml version="1.0" encoding="UTF-8"?>
<svg width="220px" height="78px" viewBox="0 0 220 78" version="1.1" xmlns="http://www.w3.org/2000/svg" xmlns:xlink="http://www.w3.org/1999/xlink">
    <!-- Generator: Sketch 41.2 (35397) - http://www.bohemiancoding.com/sketch -->
    <title>sails</title>
    <desc>Created with Sketch.</desc>
    <defs></defs>
    <g id="Welcome" stroke="none" stroke-width="1" fill="none" fill-rule="evenodd">
        <g id="Desktop-HD" transform="translate(-210.000000, -656.000000)">
            <g id="features" transform="translate(0.000000, 459.000000)">
                <g transform="translate(135.000000, 169.000000)" id="sails">
                    <g transform="translate(0.000000, 28.000000)">
                        <g transform="translate(75.000000, 0.000000)">
                            <path d="M22.5243693,53.2261732 C20.1309777,51.4995224 17.8647711,50.8362555 14.951077,50.8362555 C11.9091467,50.8362555 10.3555969,51.9654269 10.3555969,53.5594244 C10.3555969,55.3518627 11.9743159,56.3483807 15.0814154,56.4141682 C21.3597326,56.6136875 28.934076,57.9434567 28.9992452,66.9757495 C29.0623122,72.287277 25.1794889,78 15.0172973,78 C10.2914788,78 5.43637305,77.0692694 0,72.4199304 L4.01105947,65.6459803 C7.96010308,68.9677071 11.7798594,69.6967615 15.1455335,69.7636274 C17.8647711,69.8315718 20.0016904,68.7024004 19.9365212,66.9757495 C19.9365212,65.446461 18.8360025,64.1867932 14.499097,64.0541398 C8.54347258,63.7855976 1.10051867,61.2630265 1.10051867,53.5594244 C1.10051867,46.1200505 7.96010308,43 14.88801,43 C19.8072339,43 23.7552264,44.2596678 27.1219516,47.2481435 L22.5243693,53.2261732" id="Fill-2" fill="#FFFFFF"></path>
                            <path d="M41.5111138,60.0002219 C41.5111138,65.4020316 45.3425898,68.5656583 50.098683,68.5656583 C55.4500924,68.5656583 58.7516835,64.4134651 58.7516835,60.3286741 C58.7516835,55.6522411 55.780466,51.368453 50.098683,51.368453 C45.3425898,51.368453 41.5111138,54.5973422 41.5111138,60.0002219 Z M59.0831297,43.7263205 L68,43.7263205 L68,76.2741232 L59.4135034,76.2741232 L58.884691,72.1893323 C56.7040105,75.614009 52.0144211,76.9320977 48.8436923,76.9994999 C39.0687087,77.0647625 32,70.7385788 32,60.0002219 C32,49.1955325 39.4645134,42.8704187 49.1086348,43.0020136 C53.2039807,43.0020136 57.0354568,44.5811523 58.7516835,47.4815893 L59.0831297,43.7263205 L59.0831297,43.7263205 Z" id="Fill-3" fill="#FFFFFF"></path>
                            <path d="M74.6709575,76 L84.3301317,76 L84.3301317,43.7473636 L74.6709575,43.7473636 L74.6709575,76 Z M85,35.2768673 C85,42.3148065 74,42.3148065 74,35.2768673 C74,28.2410442 85,28.2410442 85,35.2768673 L85,35.2768673 Z" id="Fill-4" fill="#FFFFFF"></path>
                            <polygon id="Fill-5" fill="#FFFFFF" points="90 76 99 76 99 30 90 30"></polygon>
                            <path d="M126.526452,53.2261732 C124.13096,51.4995224 121.865807,50.8362555 118.953166,50.8362555 C115.910187,50.8362555 114.35769,51.9654269 114.35769,53.5594244 C114.35769,55.3518627 115.975357,56.3483807 119.082453,56.4141682 C125.359714,56.6136875 132.934051,57.9434567 132.99922,66.9757495 C133.063338,72.287277 129.180518,78 119.017284,78 C114.292521,78 109.437419,77.0692694 104,72.4199304 L108.012107,65.6459803 C111.961147,68.9677071 115.7809,69.6967615 119.146571,69.7636274 C121.865807,69.8315718 124.001673,68.7024004 123.937555,66.9757495 C123.937555,65.446461 122.837037,64.1867932 118.500136,64.0541398 C112.543465,63.7855976 105.100518,61.2630265 105.100518,53.5594244 C105.100518,46.1200505 111.961147,43 118.887997,43 C123.808268,43 127.756257,44.2596678 131.122979,47.2481435 L126.526452,53.2261732" id="Fill-6" fill="#FFFFFF"></path>
                            <path d="M148.289317,78 C148.289317,78 118.292928,30.5527299 180,0 L180,78 L148.289317,78" id="Fill-7" fill="#00C1BE"></path>
                            <path d="M190,78 L190,30 C190,30 199.893606,45.8626291 220,78 L190,78" id="Fill-8" fill="#00C1BE"></path>
                        </g>
                    </g>
                </g>
            </g>
        </g>
    </g>
</svg>