<?xml version="1.0" encoding="UTF-8"?>
<svg width="66px" height="55px" viewBox="0 0 66 55" version="1.1" xmlns="http://www.w3.org/2000/svg" xmlns:xlink="http://www.w3.org/1999/xlink">
    <!-- Generator: Sketch 41.2 (35397) - http://www.bohemiancoding.com/sketch -->
    <title>twitter</title>
    <desc>Created with Sketch.</desc>
    <defs></defs>
    <g id="Welcome" stroke="none" stroke-width="1" fill="none" fill-rule="evenodd">
        <g id="Desktop-HD" transform="translate(-187.000000, -1138.000000)" fill="#1FCDCA">
            <g id="apps" transform="translate(135.000000, 1023.000000)">
                <g id="services">
                    <g id="twitter" transform="translate(0.000000, 84.000000)">
                        <path d="M72.774345,85.1519914 C97.51501,85.1519914 111.04711,64.6545314 111.04711,46.8792264 C111.04711,46.2970314 111.04711,45.7174589 111.007773,45.1405089 C113.64032,43.2363401 115.91278,40.8786301 117.71875,38.1777714 C115.263773,39.2655891 112.6595,39.9789795 109.992865,40.2941289 C112.800891,38.6130593 114.902509,35.9690284 115.906603,32.8540964 C113.266158,34.420923 110.377444,35.5251442 107.36512,36.1191089 C103.195562,31.6854954 96.570174,30.6003529 91.204093,33.472167 C85.8380119,36.3439811 83.0657562,42.4585456 84.4418475,48.3871639 C73.6263841,47.8449608 63.5496377,42.7365242 56.7194,34.3331864 C53.1491882,40.4793947 54.9727832,48.3422129 60.88393,52.2894439 C58.7432913,52.2259992 56.6493252,51.6485395 54.77875,50.6057989 L54.77875,50.7762614 C54.7805022,57.179339 59.2940433,62.6943049 65.5703375,63.9621914 C63.590008,64.5022692 61.5122301,64.5812176 59.4966275,64.1929714 C61.2588109,69.6724828 66.3087668,73.4262271 72.0636475,73.5343164 C67.3004926,77.2777567 61.4164536,79.3099209 55.3583225,79.3038164 C54.2880896,79.3017618 53.2188977,79.2369623 52.15625,79.1097514 C58.3076803,83.0573392 65.4652104,85.151249 72.774345,85.1415014"></path>
                    </g>
                </g>
            </g>
        </g>
    </g>
</svg>