<?xml version="1.0" encoding="UTF-8"?>
<svg width="65px" height="67px" viewBox="0 0 65 67" version="1.1" xmlns="http://www.w3.org/2000/svg" xmlns:xlink="http://www.w3.org/1999/xlink">
    <!-- Generator: Sketch 41.2 (35397) - http://www.bohemiancoding.com/sketch -->
    <title>weather</title>
    <desc>Created with Sketch.</desc>
    <defs></defs>
    <g id="Welcome" stroke="none" stroke-width="1" fill="none" fill-rule="evenodd">
        <g id="Desktop-HD" transform="translate(-389.000000, -1134.000000)" fill="#1FCDCA">
            <g id="apps" transform="translate(135.000000, 1023.000000)">
                <g id="services">
                    <g id="wetter" transform="translate(202.000000, 84.000000)">
                        <path d="M106.811738,76.0133337 L106.811738,76.0555319 L73.5401119,76.0555319 C69.0606149,76.0555319 65.425081,72.4199981 65.425081,67.940501 C65.425081,63.459922 69.0606149,59.8254702 73.5401119,59.8254702 C74.107082,59.8254702 74.6610681,59.8838984 75.1977422,59.9942628 C75.5353275,52.2254733 81.9223977,46.0299178 89.7701736,46.0299178 C95.9538271,46.0299178 101.224269,49.8753604 103.359063,55.302693 C104.204108,55.0830462 105.088106,54.9564517 106.000235,54.9564517 C111.828991,54.9564517 116.549775,59.6772356 116.549775,65.5059918 C116.549775,71.0555909 112.260711,75.5945981 106.811738,76.0133337 Z M90.3663578,44.4317977 C88.1644795,40.3277561 84.1491622,37.2591924 79.1957474,36.4769035 C70.7853294,35.1503664 62.8899454,40.8903982 61.5579983,49.3008162 C60.7811194,54.2163609 62.4333397,58.9458008 65.6068577,62.3021776 C65.0582817,63.0714825 64.622234,63.9251838 64.3138628,64.8373132 C61.8501395,65.3198871 58.0880112,67.3821869 57.1033874,66.0253538 C55.8233766,64.2627691 61.6304926,59.76596 60.8817458,57.8215986 C60.1081128,55.8101529 52.8013391,56.351155 52.5806102,54.262887 C52.3609634,52.141077 59.630949,51.1434692 59.9652883,49.0519552 C60.2898895,46.9809994 53.6712704,43.8107273 54.5206436,41.87935 C55.3786729,39.9349886 62.1758227,42.682197 63.5445579,40.9910246 C64.8548649,39.3766745 60.7172812,33.3077134 62.4798659,32.0266205 C64.2424506,30.7466097 68.7392596,36.5537257 70.679293,35.8049789 C72.6864106,35.032428 72.1454086,27.7245722 74.2380045,27.5049254 C76.3381745,27.2841965 77.3108962,34.5541821 79.3818521,34.8755374 C81.4993341,35.2055486 84.7118043,28.5945035 86.6853798,29.4698448 C88.6081012,30.3235461 85.8403346,37.1077119 87.514195,38.463463 C89.1285451,39.77377 95.1975062,35.6361863 96.4785991,37.398771 C97.5811613,38.9157407 93.308327,42.5134044 92.6872567,44.6817406 C91.9309358,44.5421621 91.1573028,44.4610118 90.3663578,44.4317977 Z M80.0624327,77.2933446 L78.3333901,81.871304 L81.1574208,82.6276249 L75.138232,89.4150366 L76.8672745,84.8381593 L74.0432438,84.0818384 L80.0624327,77.2933446 Z M92.2349789,81.35086 L90.5059364,85.9288194 L93.3299671,86.6851403 L87.3107782,93.4725521 L89.0398208,88.8956747 L86.2157901,88.1393538 L92.2349789,81.35086 Z M104.407525,77.2933446 L102.678483,81.871304 L105.502513,82.6276249 L99.4833245,89.4150366 L101.212367,84.8381593 L98.3883363,84.0818384 L104.407525,77.2933446 Z" id="weather"></path>
                    </g>
                </g>
            </g>
        </g>
    </g>
</svg>