<?xml version="1.0" encoding="UTF-8"?>
<svg width="178px" height="105px" viewBox="0 0 178 105" version="1.1" xmlns="http://www.w3.org/2000/svg" xmlns:xlink="http://www.w3.org/1999/xlink">
    <!-- Generator: Sketch 41.2 (35397) - http://www.bohemiancoding.com/sketch -->
    <title>webclient</title>
    <desc>Created with Sketch.</desc>
    <defs></defs>
    <g id="Welcome" stroke="none" stroke-width="1" fill="none" fill-rule="evenodd">
        <g id="Desktop-HD" transform="translate(-629.000000, -628.000000)">
            <g id="features" transform="translate(0.000000, 459.000000)">
                <g transform="translate(135.000000, 169.000000)" id="sails-copy">
                    <g transform="translate(400.000000, 0.000000)">
                        <g id="webclient" transform="translate(94.000000, 0.000000)">
                            <g id="databse" fill="#FFFFFF">
                                <path d="M15.4272822,48 L15.4272822,68 L70.4272822,68 L70.4272822,48 L15.4272822,48 Z M36.832573,60.405412 L30.1125733,60.405412 L30.1125733,55.3418132 L36.832573,55.3418132 L36.832573,60.405412 Z M49.5283501,61.1637365 C47.7189803,61.1637365 46.4272822,59.6454671 46.4272822,58.1271976 C46.4272822,56.6073078 47.9786431,55.087418 49.5283501,55.087418 C51.3377198,55.087418 52.6294179,56.6073078 52.6294179,58.1271976 C52.6294179,59.6454671 51.3377198,61.1637365 49.5283501,61.1637365 Z" id="Fill-3"></path>
                                <path d="M15.4272822,24 L15.4272822,44 L70.4272822,44 L70.4272822,24 L15.4272822,24 Z M36.832573,36.6571614 L30.1125733,36.6571614 L30.1125733,31.595593 L36.832573,31.595593 L36.832573,36.6571614 Z M49.5283501,37.1642903 C47.7189803,37.1642903 46.4272822,35.6461439 46.4272822,34.1263772 C46.4272822,32.3538561 47.9786431,31.088464 49.5283501,31.088464 C51.3377198,31.088464 52.6294179,32.6066105 52.6294179,34.1263772 C52.6294179,35.6461439 51.3377198,37.1642903 49.5283501,37.1642903 Z" id="Fill-4"></path>
                                <path d="M15.4272822,0 L15.4272822,20 L70.4272822,20 L70.4272822,0 L15.4272822,0 Z M36.832573,12.6587816 L30.1125733,12.6587816 L30.1125733,7.595593 L36.832573,7.595593 L36.832573,12.6587816 Z M49.5283501,13.1659106 C47.7189803,13.1659106 46.4272822,11.6461439 46.4272822,10.1263772 C46.4272822,8.35547634 47.9786431,7.09008425 49.5283501,7.09008425 C51.3377198,7.09008425 52.6294179,8.60823072 52.6294179,10.1263772 C52.6294179,11.8988983 51.3377198,13.1659106 49.5283501,13.1659106 Z" id="Fill-5"></path>
                                <polygon id="Fill-6" points="138.512195 71 131.085932 71 131.085932 88.3828313 122.598127 88.3828313 122.598127 94.0075065 55.4018732 94.0075065 55.4018732 88.3828313 46.9140683 88.3828313 46.9140683 71 39.4878049 71 39.4878049 88.3828313 31 88.3828313 31 105 55.4018732 105 55.4018732 99.3753248 122.598127 99.3753248 122.598127 105 147 105 147 88.3828313 138.512195 88.3828313"></polygon>
                                <polygon id="Fill-7" points="151 100 178 100 178 95 151 95"></polygon>
                                <polygon id="Fill-8" points="0 100 27 100 27 95 0 95"></polygon>
                            </g>
                            <g id="browser" transform="translate(93.000000, 1.000000)" fill="#00C1BE">
                                <path d="M82.1530612,0 L0.846938776,0 C0.339904762,0 0,0.337531486 0,0.843828715 L0,66.1561713 C0,66.6624685 0.339904762,67 0.846938776,67 L82.1530612,67 C82.6600952,67 83,66.6624685 83,66.1561713 L83,0.843828715 C83,0.333031066 82.6600952,0 82.1530612,0 Z M37.4804449,27.9858534 C37.8191015,28.3257581 37.8191015,28.8327921 37.4804449,29.1726969 L28.4481023,38.2326833 L52.5816036,38.2326833 C53.0867757,38.2326833 53.4254323,38.572588 53.4254323,39.0796221 C53.4254323,39.5866561 53.0867757,39.9265608 52.5816036,39.9265608 L28.4481023,39.9265608 L37.3971871,48.9865472 C37.5637027,49.1548057 37.6514609,49.4100166 37.6514609,49.5782751 C37.6514609,49.7454044 37.5682031,50.0017445 37.3971871,50.1688738 C37.0585305,50.5087785 36.5533584,50.5087785 36.2147018,50.1688738 L25.8333584,39.6668329 C25.6668429,39.4985744 25.5790847,39.3269282 25.5790847,39.0751051 C25.5790847,38.8198942 25.6623425,38.6516357 25.8333584,38.4845064 L36.2979596,27.9858534 C36.6366162,27.6459486 37.1417883,27.6459486 37.4804449,27.9858534 Z M81.3061224,10.4589757 L1.69387755,10.4589757 L1.69387755,1.68765743 L81.3061224,1.68765743 L81.3061224,10.4589757 Z" id="Fill-1"></path>
                                <path d="M6.85379737,7 L12.1462026,7 C12.6573427,7 13,6.59866667 13,6 C13,5.40133333 12.6573427,5 12.1462026,5 L6.85379737,5 C6.34265734,5 6,5.40133333 6,6 C6,6.59866667 6.42689868,7 6.85379737,7 Z" id="Fill-2"></path>
                                <path d="M17.8537974,7 L23.1462026,7 C23.6573427,7 24,6.59866667 24,6 C24,5.40133333 23.6573427,5 23.1462026,5 L17.8537974,5 C17.3426573,5 17,5.40133333 17,6 C17,6.59866667 17.4268987,7 17.8537974,7 Z" id="Fill-3"></path>
                                <path d="M27.8539362,7 L33.1460638,7 C33.6584255,7 34,6.59866667 34,6 C34,5.40133333 33.6584255,5 33.1460638,5 L27.8539362,5 C27.3427131,5 27,5.40133333 27,6 C27,6.59866667 27.4269681,7 27.8539362,7 Z" id="Fill-4"></path>
                            </g>
                        </g>
                    </g>
                </g>
            </g>
        </g>
    </g>
</svg>