<?xml version="1.0" encoding="utf-8"?>
<!-- Generator: Adobe Illustrator 17.0.0, SVG Export Plug-In . SVG Version: 6.00 Build 0)  -->
<!DOCTYPE svg PUBLIC "-//W3C//DTD SVG 1.1//EN" "http://www.w3.org/Graphics/SVG/1.1/DTD/svg11.dtd">
<svg version="1.1" id="Ebene_1" xmlns="http://www.w3.org/2000/svg" xmlns:xlink="http://www.w3.org/1999/xlink" x="0px" y="0px"
	 width="275px" height="175px" viewBox="0 0 275 175" enable-background="new 0 0 275 175" xml:space="preserve">
<g>
	<defs>
		<path id="SVGID_1_" d="M180.237,162h-3.474c-0.984,0-1.763-0.779-1.763-1.763v-3.474c0-0.967,0.779-1.763,1.763-1.763h3.474
			c0.984,0,1.763,0.779,1.763,1.763v3.474C182,161.221,181.221,162,180.237,162z M223.763,155h3.474
			c0.984,0,1.763,0.779,1.763,1.763v3.474c0,0.967-0.779,1.763-1.763,1.763h-3.474c-0.984,0-1.763-0.779-1.763-1.763v-3.474
			C222,155.779,222.779,155,223.763,155z M268,44h-87v30.141h19.952c3.708,0,6.689,3.001,6.689,6.693V168h60.342V44H268z M222,7H7
			v134h140.988V80.667c0-3.69,3.013-6.689,6.714-6.689h20.159V43.835c0-3.71,3.009-6.693,6.714-6.693h40.408V7H222z M155,168h47V81
			h-47V168z M268.315,175H154.261c-3.711,0-6.702-3.012-6.702-6.721v-20.176H117.46v6.672h21.792c0.946,0,1.703,0.755,1.703,1.708
			v3.367c0,0.937-0.757,1.708-1.703,1.708H88.934c-0.946,0-1.703-0.755-1.703-1.708v-3.367c0-0.937,0.757-1.708,1.703-1.708h21.825
			v-6.672H6.702c-3.711,0-6.702-3.016-6.702-6.721V6.721C0,3.012,3.007,0,6.702,0h214.655c3.711,0,6.702,3.012,6.702,6.721V36.99
			h40.24c3.711,0,6.702,3.012,6.702,6.721v124.551C275.016,171.988,272.009,175,268.315,175z"/>
	</defs>
	<clipPath id="SVGID_2_">
		<use xlink:href="#SVGID_1_"  overflow="visible"/>
	</clipPath>
	<rect x="-5" y="-5" clip-path="url(#SVGID_2_)" width="285" height="185"/>
</g>
</svg>
